<svg width="13.95in" height="9.925in" viewBox="0 0 13.95 9.925" xmlns="http://www.w3.org/2000/svg" version="1.1" preserveAspectRatio="xMidYMid meet"><g id="svgGroup" stroke-linecap="round" fill-rule="evenodd" font-size="9pt" stroke="#000" stroke-width="0.25mm" fill="none" style="stroke:#000;stroke-width:0.25mm;fill:none"><path d="M 0 5.025 L 0 5.638 L 0.2 5.638 L 0.2 6.163 L 0 6.163 L 0 6.688 L 0.2 6.688 L 0.2 7.213 L 0 7.213 L 0 7.738 L 0.2 7.738 L 0.2 8.263 L 0 8.263 L 0 8.788 L 0.2 8.788 L 0.2 9.313 L 0 9.313 L 0 9.925 L 0.613 9.925 L 0.613 9.725 L 1.138 9.725 L 1.138 9.925 L 1.663 9.925 L 1.663 9.725 L 2.188 9.725 L 2.188 9.925 L 2.713 9.925 L 2.713 9.725 L 3.238 9.725 L 3.238 9.925 L 3.763 9.925 L 3.763 9.725 L 4.288 9.725 L 4.288 9.925 L 4.9 9.925 L 4.9 9.313 L 4.7 9.313 L 4.7 8.788 L 4.9 8.788 L 4.9 8.263 L 4.7 8.263 L 4.7 7.738 L 4.9 7.738 L 4.9 7.213 L 4.7 7.213 L 4.7 6.688 L 4.9 6.688 L 4.9 6.163 L 4.7 6.163 L 4.7 5.638 L 4.9 5.638 L 4.9 5.025 L 4.288 5.025 L 4.288 5.225 L 3.763 5.225 L 3.763 5.025 L 3.238 5.025 L 3.238 5.225 L 2.713 5.225 L 2.713 5.025 L 2.188 5.025 L 2.188 5.225 L 1.663 5.225 L 1.663 5.025 L 1.138 5.025 L 1.138 5.225 L 0.613 5.225 L 0.613 5.025 L 0 5.025 Z" id="front_outsideCutPath" stroke="#000000" stroke-width="0.001" style="stroke:#000000;stroke-width:0.001" vector-effect="non-scaling-stroke"/><path d="M 3.164 7.845 L 3.085 7.845 L 3.085 7.506 Q 3.085 7.442 3.056 7.41 A 0.09 0.09 0 0 0 3.019 7.387 Q 3.004 7.382 2.987 7.38 A 0.211 0.211 0 0 0 2.964 7.379 Q 2.91 7.379 2.875 7.398 A 0.112 0.112 0 0 0 2.844 7.423 Q 2.809 7.464 2.806 7.553 A 0.509 0.509 0 0 0 2.805 7.57 L 2.805 7.845 L 2.726 7.845 L 2.726 7.321 L 2.79 7.321 L 2.803 7.392 L 2.807 7.392 A 0.161 0.161 0 0 1 2.87 7.335 A 0.194 0.194 0 0 1 2.876 7.332 Q 2.92 7.311 2.974 7.311 Q 3.037 7.311 3.079 7.331 A 0.143 0.143 0 0 1 3.116 7.357 Q 3.164 7.402 3.164 7.503 L 3.164 7.845 Z M 1.638 7.321 L 1.638 7.382 L 1.505 7.382 L 1.505 7.845 L 1.425 7.845 L 1.425 7.382 L 1.331 7.382 L 1.331 7.347 L 1.425 7.318 L 1.425 7.289 A 0.322 0.322 0 0 1 1.433 7.216 Q 1.456 7.116 1.551 7.099 A 0.241 0.241 0 0 1 1.594 7.095 A 0.256 0.256 0 0 1 1.63 7.098 Q 1.659 7.102 1.692 7.112 L 1.671 7.176 A 0.386 0.386 0 0 0 1.641 7.167 Q 1.626 7.164 1.613 7.162 A 0.171 0.171 0 0 0 1.593 7.161 Q 1.548 7.161 1.526 7.191 A 0.092 0.092 0 0 0 1.514 7.215 Q 1.505 7.243 1.505 7.287 L 1.505 7.321 L 1.638 7.321 Z M 3.569 7.78 L 3.569 7.84 Q 3.557 7.846 3.535 7.85 A 0.295 0.295 0 0 1 3.53 7.851 A 0.344 0.344 0 0 1 3.508 7.854 Q 3.497 7.855 3.488 7.855 A 0.203 0.203 0 0 1 3.485 7.855 A 0.207 0.207 0 0 1 3.424 7.846 Q 3.357 7.826 3.339 7.753 A 0.25 0.25 0 0 1 3.333 7.694 L 3.333 7.382 L 3.258 7.382 L 3.258 7.344 L 3.333 7.311 L 3.367 7.199 L 3.413 7.199 L 3.413 7.321 L 3.565 7.321 L 3.565 7.382 L 3.413 7.382 L 3.413 7.691 A 0.16 0.16 0 0 0 3.415 7.719 Q 3.418 7.735 3.424 7.747 A 0.077 0.077 0 0 0 3.435 7.764 Q 3.458 7.789 3.497 7.789 A 0.261 0.261 0 0 0 3.535 7.786 A 0.236 0.236 0 0 0 3.537 7.786 Q 3.556 7.783 3.567 7.78 A 0.123 0.123 0 0 0 3.569 7.78 Z M 2.036 7.317 L 2.025 7.391 A 0.35 0.35 0 0 0 2 7.386 Q 1.987 7.384 1.976 7.384 A 0.186 0.186 0 0 0 1.967 7.383 A 0.138 0.138 0 0 0 1.866 7.427 A 0.188 0.188 0 0 0 1.859 7.435 A 0.181 0.181 0 0 0 1.815 7.537 A 0.241 0.241 0 0 0 1.813 7.564 L 1.813 7.845 L 1.734 7.845 L 1.734 7.321 L 1.799 7.321 L 1.809 7.418 L 1.812 7.418 A 0.268 0.268 0 0 1 1.842 7.375 A 0.205 0.205 0 0 1 1.883 7.339 A 0.158 0.158 0 0 1 1.973 7.311 A 0.365 0.365 0 0 1 2.006 7.312 A 0.266 0.266 0 0 1 2.036 7.317 Z M 2.579 7.662 A 0.41 0.41 0 0 0 2.587 7.582 Q 2.587 7.458 2.522 7.384 A 0.208 0.208 0 0 0 2.425 7.322 A 0.267 0.267 0 0 0 2.347 7.311 Q 2.233 7.311 2.169 7.383 Q 2.126 7.43 2.112 7.503 A 0.412 0.412 0 0 0 2.105 7.582 A 0.397 0.397 0 0 0 2.11 7.647 A 0.294 0.294 0 0 0 2.134 7.727 A 0.261 0.261 0 0 0 2.14 7.738 A 0.215 0.215 0 0 0 2.219 7.822 Q 2.273 7.855 2.344 7.855 A 0.308 0.308 0 0 0 2.397 7.85 A 0.212 0.212 0 0 0 2.522 7.783 A 0.222 0.222 0 0 0 2.548 7.746 Q 2.57 7.71 2.579 7.662 Z M 2.204 7.693 A 0.167 0.167 0 0 0 2.227 7.736 A 0.13 0.13 0 0 0 2.312 7.785 A 0.197 0.197 0 0 0 2.345 7.788 A 0.185 0.185 0 0 0 2.394 7.782 A 0.128 0.128 0 0 0 2.464 7.736 A 0.171 0.171 0 0 0 2.49 7.684 Q 2.498 7.66 2.502 7.631 A 0.418 0.418 0 0 0 2.504 7.582 A 0.396 0.396 0 0 0 2.501 7.526 Q 2.496 7.497 2.488 7.474 A 0.164 0.164 0 0 0 2.464 7.43 A 0.131 0.131 0 0 0 2.383 7.382 A 0.2 0.2 0 0 0 2.344 7.379 Q 2.266 7.379 2.227 7.43 Q 2.198 7.467 2.19 7.53 A 0.42 0.42 0 0 0 2.187 7.582 Q 2.187 7.648 2.204 7.693 Z" id="front_labelLayer" stroke="#000000" fill="#000000" style="stroke:#000000;fill:#000000" vector-effect="non-scaling-stroke"/><path d="M 5.225 5.025 L 5.225 5.638 L 5.025 5.638 L 5.025 6.163 L 5.225 6.163 L 5.225 6.688 L 5.025 6.688 L 5.025 7.213 L 5.225 7.213 L 5.225 7.738 L 5.025 7.738 L 5.025 8.263 L 5.225 8.263 L 5.225 8.788 L 5.025 8.788 L 5.025 9.313 L 5.225 9.313 L 5.225 9.925 L 5.663 9.925 L 5.663 9.725 L 6.188 9.725 L 6.188 9.925 L 6.713 9.925 L 6.713 9.725 L 7.238 9.725 L 7.238 9.925 L 7.763 9.925 L 7.763 9.725 L 8.288 9.725 L 8.288 9.925 L 8.725 9.925 L 8.725 9.313 L 8.925 9.313 L 8.925 8.788 L 8.725 8.788 L 8.725 8.263 L 8.925 8.263 L 8.925 7.738 L 8.725 7.738 L 8.725 7.213 L 8.925 7.213 L 8.925 6.688 L 8.725 6.688 L 8.725 6.163 L 8.925 6.163 L 8.925 5.638 L 8.725 5.638 L 8.725 5.025 L 8.288 5.025 L 8.288 5.225 L 7.763 5.225 L 7.763 5.025 L 7.238 5.025 L 7.238 5.225 L 6.713 5.225 L 6.713 5.025 L 6.188 5.025 L 6.188 5.225 L 5.663 5.225 L 5.663 5.025 L 5.225 5.025 Z" id="left_outsideCutPath" stroke="#000000" stroke-width="0.001" style="stroke:#000000;stroke-width:0.001" vector-effect="non-scaling-stroke"/><path d="M 7.252 7.352 L 7.252 7.401 L 7.146 7.401 L 7.146 7.77 L 7.083 7.77 L 7.083 7.401 L 7.008 7.401 L 7.008 7.373 L 7.083 7.35 L 7.083 7.327 A 0.256 0.256 0 0 1 7.089 7.269 Q 7.107 7.189 7.183 7.176 A 0.192 0.192 0 0 1 7.217 7.173 A 0.204 0.204 0 0 1 7.246 7.175 Q 7.26 7.177 7.276 7.181 A 0.409 0.409 0 0 1 7.295 7.186 L 7.279 7.237 A 0.307 0.307 0 0 0 7.255 7.23 Q 7.243 7.227 7.232 7.226 A 0.136 0.136 0 0 0 7.216 7.225 A 0.085 0.085 0 0 0 7.196 7.227 A 0.055 0.055 0 0 0 7.163 7.249 A 0.073 0.073 0 0 0 7.154 7.268 Q 7.147 7.287 7.146 7.316 A 0.299 0.299 0 0 0 7.146 7.325 L 7.146 7.352 L 7.252 7.352 Z M 6.957 7.532 L 6.957 7.572 L 6.669 7.572 Q 6.67 7.623 6.687 7.656 A 0.119 0.119 0 0 0 6.706 7.684 A 0.115 0.115 0 0 0 6.766 7.718 A 0.174 0.174 0 0 0 6.805 7.722 A 0.334 0.334 0 0 0 6.93 7.697 A 0.383 0.383 0 0 0 6.939 7.694 L 6.939 7.75 A 0.38 0.38 0 0 1 6.904 7.763 A 0.29 0.29 0 0 1 6.875 7.771 A 0.265 0.265 0 0 1 6.849 7.775 Q 6.836 7.776 6.821 7.777 A 0.515 0.515 0 0 1 6.803 7.777 A 0.246 0.246 0 0 1 6.742 7.77 A 0.174 0.174 0 0 1 6.657 7.721 A 0.186 0.186 0 0 1 6.612 7.639 Q 6.605 7.61 6.604 7.576 A 0.361 0.361 0 0 1 6.603 7.564 Q 6.603 7.482 6.636 7.427 A 0.187 0.187 0 0 1 6.653 7.404 A 0.162 0.162 0 0 1 6.771 7.345 A 0.224 0.224 0 0 1 6.787 7.345 A 0.193 0.193 0 0 1 6.841 7.352 A 0.147 0.147 0 0 1 6.911 7.396 A 0.177 0.177 0 0 1 6.951 7.477 A 0.257 0.257 0 0 1 6.957 7.532 Z M 7.521 7.717 L 7.521 7.766 A 0.062 0.062 0 0 1 7.513 7.769 Q 7.504 7.772 7.49 7.774 A 0.274 0.274 0 0 1 7.472 7.776 Q 7.464 7.777 7.456 7.777 A 0.161 0.161 0 0 1 7.454 7.777 A 0.165 0.165 0 0 1 7.406 7.771 Q 7.333 7.748 7.333 7.65 L 7.333 7.401 L 7.273 7.401 L 7.273 7.371 L 7.333 7.345 L 7.36 7.255 L 7.396 7.255 L 7.396 7.352 L 7.518 7.352 L 7.518 7.401 L 7.396 7.401 L 7.396 7.647 Q 7.396 7.673 7.405 7.691 A 0.061 0.061 0 0 0 7.414 7.705 A 0.059 0.059 0 0 0 7.45 7.724 A 0.084 0.084 0 0 0 7.463 7.725 A 0.208 0.208 0 0 0 7.494 7.723 A 0.186 0.186 0 0 0 7.496 7.723 Q 7.511 7.72 7.52 7.718 Z M 6.493 7.177 L 6.493 7.77 L 6.429 7.77 L 6.429 7.177 L 6.493 7.177 Z M 6.671 7.521 L 6.889 7.521 A 0.215 0.215 0 0 0 6.886 7.486 Q 6.88 7.451 6.862 7.429 A 0.087 0.087 0 0 0 6.81 7.4 A 0.13 0.13 0 0 0 6.786 7.397 A 0.125 0.125 0 0 0 6.75 7.402 A 0.096 0.096 0 0 0 6.706 7.43 A 0.125 0.125 0 0 0 6.681 7.472 Q 6.675 7.489 6.672 7.51 A 0.239 0.239 0 0 0 6.671 7.521 Z" id="left_labelLayer" stroke="#000000" fill="#000000" style="stroke:#000000;fill:#000000" vector-effect="non-scaling-stroke"/><path d="M 9.25 6.225 L 9.25 6.663 L 9.05 6.663 L 9.05 7.188 L 9.25 7.188 L 9.25 7.713 L 9.05 7.713 L 9.05 8.238 L 9.25 8.238 L 9.25 8.763 L 9.05 8.763 L 9.05 9.288 L 9.25 9.288 L 9.25 9.725 L 9.663 9.725 L 9.663 9.925 L 10.188 9.925 L 10.188 9.725 L 10.713 9.725 L 10.713 9.925 L 11.238 9.925 L 11.238 9.725 L 11.763 9.725 L 11.763 9.925 L 12.288 9.925 L 12.288 9.725 L 12.813 9.725 L 12.813 9.925 L 13.338 9.925 L 13.338 9.725 L 13.75 9.725 L 13.75 9.288 L 13.95 9.288 L 13.95 8.763 L 13.75 8.763 L 13.75 8.238 L 13.95 8.238 L 13.95 7.713 L 13.75 7.713 L 13.75 7.188 L 13.95 7.188 L 13.95 6.663 L 13.75 6.663 L 13.75 6.225 L 13.338 6.225 L 13.338 6.025 L 12.813 6.025 L 12.813 6.225 L 12.288 6.225 L 12.288 6.025 L 11.763 6.025 L 11.763 6.225 L 11.238 6.225 L 11.238 6.025 L 10.713 6.025 L 10.713 6.225 L 10.188 6.225 L 10.188 6.025 L 9.663 6.025 L 9.663 6.225 L 9.25 6.225 Z" id="top_outsideCutPath" stroke="#000000" stroke-width="0.001" style="stroke:#000000;stroke-width:0.001" vector-effect="non-scaling-stroke"/><path d="M 11.78 8.085 L 11.776 8.085 A 0.598 0.598 0 0 1 11.78 8.129 A 0.501 0.501 0 0 1 11.78 8.154 L 11.78 8.326 L 11.717 8.326 L 11.717 7.721 L 11.769 7.721 L 11.777 7.778 L 11.78 7.778 A 0.17 0.17 0 0 1 11.805 7.75 A 0.132 0.132 0 0 1 11.837 7.729 A 0.158 0.158 0 0 1 11.882 7.715 A 0.205 0.205 0 0 1 11.911 7.713 A 0.194 0.194 0 0 1 11.966 7.721 A 0.143 0.143 0 0 1 12.039 7.77 Q 12.076 7.816 12.083 7.893 A 0.412 0.412 0 0 1 12.085 7.929 Q 12.085 8.032 12.039 8.089 A 0.15 0.15 0 0 1 11.932 8.145 A 0.214 0.214 0 0 1 11.911 8.146 A 0.192 0.192 0 0 1 11.863 8.14 A 0.167 0.167 0 0 1 11.837 8.131 Q 11.803 8.116 11.78 8.085 Z M 11.163 8.086 L 11.163 8.135 A 0.062 0.062 0 0 1 11.155 8.138 Q 11.146 8.141 11.132 8.143 A 0.274 0.274 0 0 1 11.114 8.145 Q 11.106 8.146 11.098 8.146 A 0.161 0.161 0 0 1 11.096 8.146 A 0.165 0.165 0 0 1 11.048 8.139 Q 10.975 8.117 10.975 8.018 L 10.975 7.77 L 10.915 7.77 L 10.915 7.74 L 10.975 7.713 L 11.002 7.624 L 11.038 7.624 L 11.038 7.721 L 11.16 7.721 L 11.16 7.77 L 11.038 7.77 L 11.038 8.016 Q 11.038 8.042 11.047 8.06 A 0.061 0.061 0 0 0 11.056 8.074 A 0.059 0.059 0 0 0 11.092 8.093 A 0.084 0.084 0 0 0 11.105 8.094 A 0.208 0.208 0 0 0 11.136 8.092 A 0.186 0.186 0 0 0 11.138 8.091 Q 11.153 8.089 11.162 8.086 Z M 11.6 7.993 A 0.327 0.327 0 0 0 11.606 7.929 Q 11.606 7.889 11.598 7.855 A 0.197 0.197 0 0 0 11.555 7.772 Q 11.503 7.713 11.415 7.713 A 0.246 0.246 0 0 0 11.371 7.717 A 0.167 0.167 0 0 0 11.274 7.77 Q 11.24 7.808 11.228 7.866 A 0.328 0.328 0 0 0 11.223 7.929 A 0.316 0.316 0 0 0 11.227 7.981 A 0.234 0.234 0 0 0 11.246 8.044 A 0.208 0.208 0 0 0 11.251 8.053 A 0.171 0.171 0 0 0 11.313 8.12 A 0.176 0.176 0 0 0 11.354 8.138 A 0.203 0.203 0 0 0 11.413 8.146 A 0.246 0.246 0 0 0 11.456 8.142 A 0.169 0.169 0 0 0 11.555 8.089 A 0.176 0.176 0 0 0 11.576 8.06 Q 11.593 8.031 11.6 7.993 Z M 11.288 7.929 Q 11.288 8.009 11.32 8.051 Q 11.352 8.093 11.414 8.093 A 0.147 0.147 0 0 0 11.453 8.088 A 0.102 0.102 0 0 0 11.509 8.051 A 0.136 0.136 0 0 0 11.53 8.01 Q 11.536 7.991 11.539 7.968 A 0.333 0.333 0 0 0 11.541 7.929 A 0.315 0.315 0 0 0 11.538 7.884 Q 11.531 7.837 11.509 7.808 A 0.104 0.104 0 0 0 11.444 7.77 A 0.159 0.159 0 0 0 11.414 7.767 A 0.15 0.15 0 0 0 11.376 7.771 A 0.101 0.101 0 0 0 11.32 7.808 A 0.131 0.131 0 0 0 11.3 7.847 Q 11.288 7.881 11.288 7.929 Z M 11.78 7.915 L 11.78 7.929 A 0.418 0.418 0 0 0 11.782 7.973 Q 11.787 8.016 11.801 8.043 A 0.095 0.095 0 0 0 11.81 8.055 A 0.092 0.092 0 0 0 11.856 8.087 Q 11.872 8.091 11.891 8.093 A 0.203 0.203 0 0 0 11.904 8.093 A 0.107 0.107 0 0 0 11.945 8.085 Q 11.971 8.075 11.988 8.049 A 0.153 0.153 0 0 0 12.009 8.005 Q 12.015 7.984 12.018 7.96 A 0.337 0.337 0 0 0 12.019 7.929 A 0.319 0.319 0 0 0 12.016 7.883 Q 12.01 7.837 11.988 7.809 Q 11.958 7.767 11.902 7.767 A 0.182 0.182 0 0 0 11.868 7.77 Q 11.849 7.774 11.835 7.782 A 0.084 0.084 0 0 0 11.81 7.802 A 0.108 0.108 0 0 0 11.793 7.833 Q 11.782 7.862 11.781 7.906 A 0.402 0.402 0 0 0 11.78 7.915 Z" id="top_labelLayer" stroke="#000000" fill="#000000" style="stroke:#000000;fill:#000000" vector-effect="non-scaling-stroke"/><path d="M 0 0 L 0 0.613 L 0.2 0.613 L 0.2 1.137 L 0 1.137 L 0 1.662 L 0.2 1.662 L 0.2 2.188 L 0 2.188 L 0 2.713 L 0.2 2.713 L 0.2 3.238 L 0 3.238 L 0 3.763 L 0.2 3.763 L 0.2 4.288 L 0 4.288 L 0 4.9 L 0.613 4.9 L 0.613 4.7 L 1.138 4.7 L 1.138 4.9 L 1.663 4.9 L 1.663 4.7 L 2.188 4.7 L 2.188 4.9 L 2.713 4.9 L 2.713 4.7 L 3.238 4.7 L 3.238 4.9 L 3.763 4.9 L 3.763 4.7 L 4.288 4.7 L 4.288 4.9 L 4.9 4.9 L 4.9 4.288 L 4.7 4.288 L 4.7 3.763 L 4.9 3.763 L 4.9 3.238 L 4.7 3.238 L 4.7 2.713 L 4.9 2.713 L 4.9 2.188 L 4.7 2.188 L 4.7 1.662 L 4.9 1.662 L 4.9 1.137 L 4.7 1.137 L 4.7 0.613 L 4.9 0.613 L 4.9 0 L 4.288 0 L 4.288 0.2 L 3.763 0.2 L 3.763 0 L 3.238 0 L 3.238 0.2 L 2.713 0.2 L 2.713 0 L 2.188 0 L 2.188 0.2 L 1.663 0.2 L 1.663 0 L 1.138 0 L 1.138 0.2 L 0.613 0.2 L 0.613 0 L 0 0 Z" id="back_outsideCutPath" stroke="#000000" stroke-width="0.001" style="stroke:#000000;stroke-width:0.001" vector-effect="non-scaling-stroke"/><path d="M 3.121 2.549 L 3.125 2.549 A 0.47 0.47 0 0 1 3.136 2.533 Q 3.15 2.516 3.169 2.494 A 1.707 1.707 0 0 1 3.187 2.472 L 3.357 2.293 L 3.451 2.293 L 3.239 2.517 L 3.466 2.817 L 3.37 2.817 L 3.185 2.57 L 3.125 2.621 L 3.125 2.817 L 3.046 2.817 L 3.046 2.073 L 3.125 2.073 L 3.125 2.468 A 0.529 0.529 0 0 1 3.124 2.483 Q 3.124 2.507 3.121 2.547 A 3.706 3.706 0 0 1 3.121 2.549 Z M 1.514 2.75 L 1.508 2.75 L 1.491 2.817 L 1.434 2.817 L 1.434 2.073 L 1.514 2.073 L 1.514 2.254 Q 1.514 2.315 1.51 2.363 L 1.514 2.363 Q 1.569 2.284 1.678 2.284 A 0.243 0.243 0 0 1 1.746 2.294 A 0.182 0.182 0 0 1 1.839 2.355 A 0.234 0.234 0 0 1 1.88 2.434 Q 1.89 2.467 1.894 2.506 A 0.51 0.51 0 0 1 1.896 2.555 A 0.466 0.466 0 0 1 1.89 2.633 Q 1.883 2.675 1.867 2.708 A 0.223 0.223 0 0 1 1.838 2.756 A 0.188 0.188 0 0 1 1.705 2.826 A 0.269 0.269 0 0 1 1.678 2.827 A 0.241 0.241 0 0 1 1.618 2.82 A 0.21 0.21 0 0 1 1.585 2.808 A 0.176 0.176 0 0 1 1.514 2.75 Z M 2.416 2.817 L 2.357 2.817 L 2.341 2.743 L 2.338 2.743 A 0.329 0.329 0 0 1 2.311 2.773 Q 2.297 2.787 2.282 2.797 A 0.146 0.146 0 0 1 2.259 2.81 A 0.183 0.183 0 0 1 2.221 2.822 Q 2.203 2.825 2.182 2.827 A 0.358 0.358 0 0 1 2.162 2.827 A 0.244 0.244 0 0 1 2.112 2.822 Q 2.082 2.816 2.059 2.801 A 0.137 0.137 0 0 1 2.04 2.787 A 0.131 0.131 0 0 1 2 2.718 A 0.2 0.2 0 0 1 1.995 2.673 A 0.137 0.137 0 0 1 2.074 2.543 Q 2.132 2.512 2.233 2.507 A 0.776 0.776 0 0 1 2.25 2.506 L 2.339 2.503 L 2.339 2.471 A 0.228 0.228 0 0 0 2.336 2.438 Q 2.334 2.421 2.329 2.407 A 0.089 0.089 0 0 0 2.312 2.379 Q 2.285 2.35 2.227 2.35 A 0.259 0.259 0 0 0 2.167 2.357 Q 2.14 2.364 2.11 2.376 A 0.532 0.532 0 0 0 2.079 2.39 L 2.054 2.329 A 0.366 0.366 0 0 1 2.125 2.3 A 0.417 0.417 0 0 1 2.139 2.296 A 0.368 0.368 0 0 1 2.232 2.284 Q 2.29 2.284 2.33 2.301 A 0.135 0.135 0 0 1 2.371 2.326 A 0.126 0.126 0 0 1 2.403 2.376 Q 2.411 2.397 2.414 2.422 A 0.313 0.313 0 0 1 2.416 2.46 L 2.416 2.817 Z M 2.929 2.311 L 2.905 2.378 A 0.353 0.353 0 0 0 2.867 2.365 A 0.422 0.422 0 0 0 2.848 2.361 Q 2.817 2.354 2.793 2.354 A 0.176 0.176 0 0 0 2.721 2.367 Q 2.646 2.4 2.635 2.515 A 0.439 0.439 0 0 0 2.633 2.558 A 0.385 0.385 0 0 0 2.637 2.614 Q 2.641 2.642 2.65 2.665 A 0.165 0.165 0 0 0 2.672 2.706 A 0.126 0.126 0 0 0 2.754 2.755 A 0.192 0.192 0 0 0 2.787 2.758 Q 2.853 2.758 2.922 2.729 L 2.922 2.8 A 0.226 0.226 0 0 1 2.867 2.819 Q 2.841 2.825 2.811 2.827 A 0.436 0.436 0 0 1 2.789 2.827 A 0.297 0.297 0 0 1 2.717 2.819 A 0.201 0.201 0 0 1 2.613 2.757 Q 2.559 2.696 2.552 2.592 A 0.48 0.48 0 0 1 2.55 2.559 Q 2.55 2.427 2.614 2.355 A 0.206 0.206 0 0 1 2.727 2.29 A 0.312 0.312 0 0 1 2.795 2.283 A 0.358 0.358 0 0 1 2.87 2.292 A 0.396 0.396 0 0 1 2.892 2.297 Q 2.903 2.3 2.912 2.303 A 0.157 0.157 0 0 1 2.929 2.311 Z M 1.58 2.371 A 0.106 0.106 0 0 0 1.549 2.398 Q 1.518 2.439 1.514 2.529 A 0.612 0.612 0 0 0 1.514 2.555 A 0.525 0.525 0 0 0 1.516 2.609 Q 1.522 2.664 1.54 2.697 A 0.12 0.12 0 0 0 1.55 2.713 A 0.115 0.115 0 0 0 1.609 2.752 Q 1.635 2.761 1.669 2.761 A 0.158 0.158 0 0 0 1.714 2.755 A 0.114 0.114 0 0 0 1.778 2.707 Q 1.803 2.669 1.811 2.607 A 0.455 0.455 0 0 0 1.814 2.554 A 0.469 0.469 0 0 0 1.811 2.5 Q 1.804 2.442 1.781 2.407 A 0.132 0.132 0 0 0 1.778 2.401 Q 1.742 2.351 1.667 2.351 Q 1.614 2.351 1.58 2.371 Z M 2.337 2.607 L 2.337 2.56 L 2.257 2.563 Q 2.178 2.566 2.136 2.584 A 0.122 0.122 0 0 0 2.121 2.592 A 0.085 0.085 0 0 0 2.08 2.654 A 0.125 0.125 0 0 0 2.079 2.673 A 0.114 0.114 0 0 0 2.081 2.7 Q 2.086 2.72 2.099 2.733 A 0.071 0.071 0 0 0 2.105 2.739 A 0.086 0.086 0 0 0 2.137 2.756 Q 2.15 2.76 2.165 2.761 A 0.179 0.179 0 0 0 2.178 2.762 Q 2.252 2.762 2.294 2.721 Q 2.336 2.68 2.337 2.608 Z" id="back_labelLayer" stroke="#000000" fill="#000000" style="stroke:#000000;fill:#000000" vector-effect="non-scaling-stroke"/><path d="M 5.225 0 L 5.225 0.613 L 5.025 0.613 L 5.025 1.137 L 5.225 1.137 L 5.225 1.662 L 5.025 1.662 L 5.025 2.188 L 5.225 2.188 L 5.225 2.713 L 5.025 2.713 L 5.025 3.238 L 5.225 3.238 L 5.225 3.763 L 5.025 3.763 L 5.025 4.288 L 5.225 4.288 L 5.225 4.9 L 5.663 4.9 L 5.663 4.7 L 6.188 4.7 L 6.188 4.9 L 6.713 4.9 L 6.713 4.7 L 7.238 4.7 L 7.238 4.9 L 7.763 4.9 L 7.763 4.7 L 8.288 4.7 L 8.288 4.9 L 8.725 4.9 L 8.725 4.288 L 8.925 4.288 L 8.925 3.763 L 8.725 3.763 L 8.725 3.238 L 8.925 3.238 L 8.925 2.713 L 8.725 2.713 L 8.725 2.188 L 8.925 2.188 L 8.925 1.662 L 8.725 1.662 L 8.725 1.137 L 8.925 1.137 L 8.925 0.613 L 8.725 0.613 L 8.725 0 L 8.288 0 L 8.288 0.2 L 7.763 0.2 L 7.763 0 L 7.238 0 L 7.238 0.2 L 6.713 0.2 L 6.713 0 L 6.188 0 L 6.188 0.2 L 5.663 0.2 L 5.663 0 L 5.225 0 Z" id="right_outsideCutPath" stroke="#000000" stroke-width="0.001" style="stroke:#000000;stroke-width:0.001" vector-effect="non-scaling-stroke"/><path d="M 7.46 2.653 L 7.397 2.653 L 7.397 2.383 A 0.179 0.179 0 0 0 7.395 2.355 Q 7.392 2.34 7.387 2.328 A 0.075 0.075 0 0 0 7.374 2.306 A 0.071 0.071 0 0 0 7.344 2.288 Q 7.333 2.284 7.319 2.282 A 0.168 0.168 0 0 0 7.301 2.281 A 0.191 0.191 0 0 0 7.265 2.284 Q 7.245 2.288 7.23 2.297 A 0.089 0.089 0 0 0 7.205 2.317 A 0.105 0.105 0 0 0 7.187 2.349 Q 7.174 2.382 7.174 2.434 L 7.174 2.653 L 7.111 2.653 L 7.111 2.06 L 7.174 2.06 L 7.174 2.239 A 0.569 0.569 0 0 1 7.174 2.261 Q 7.174 2.271 7.173 2.28 A 0.247 0.247 0 0 1 7.171 2.293 L 7.175 2.293 A 0.126 0.126 0 0 1 7.219 2.25 A 0.154 0.154 0 0 1 7.228 2.246 A 0.162 0.162 0 0 1 7.282 2.23 A 0.205 0.205 0 0 1 7.307 2.228 Q 7.383 2.228 7.422 2.265 A 0.11 0.11 0 0 1 7.449 2.307 Q 7.455 2.325 7.458 2.347 A 0.273 0.273 0 0 1 7.46 2.38 L 7.46 2.653 Z M 6.881 2.235 L 7.025 2.235 L 7.025 2.275 L 6.948 2.284 A 0.103 0.103 0 0 1 6.957 2.298 Q 6.961 2.304 6.964 2.313 A 0.195 0.195 0 0 1 6.967 2.319 A 0.122 0.122 0 0 1 6.974 2.348 A 0.156 0.156 0 0 1 6.976 2.368 A 0.145 0.145 0 0 1 6.969 2.413 A 0.117 0.117 0 0 1 6.934 2.466 Q 6.892 2.502 6.819 2.502 A 0.203 0.203 0 0 1 6.795 2.501 A 0.172 0.172 0 0 1 6.784 2.499 Q 6.743 2.52 6.743 2.553 A 0.033 0.033 0 0 0 6.745 2.564 A 0.026 0.026 0 0 0 6.756 2.578 A 0.044 0.044 0 0 0 6.767 2.582 Q 6.777 2.585 6.793 2.586 A 0.241 0.241 0 0 0 6.806 2.586 L 6.88 2.586 A 0.259 0.259 0 0 1 6.919 2.589 Q 6.939 2.592 6.956 2.599 A 0.114 0.114 0 0 1 6.984 2.615 A 0.092 0.092 0 0 1 7.018 2.674 A 0.139 0.139 0 0 1 7.02 2.698 A 0.137 0.137 0 0 1 7.012 2.745 Q 6.999 2.781 6.965 2.804 Q 6.909 2.84 6.802 2.84 A 0.354 0.354 0 0 1 6.755 2.837 Q 6.707 2.83 6.676 2.81 Q 6.635 2.781 6.632 2.731 A 0.134 0.134 0 0 1 6.632 2.723 Q 6.632 2.685 6.656 2.658 A 0.11 0.11 0 0 1 6.694 2.63 A 0.156 0.156 0 0 1 6.725 2.62 A 0.066 0.066 0 0 1 6.699 2.599 A 0.078 0.078 0 0 1 6.698 2.597 A 0.059 0.059 0 0 1 6.687 2.566 A 0.072 0.072 0 0 1 6.687 2.562 A 0.072 0.072 0 0 1 6.691 2.539 A 0.064 0.064 0 0 1 6.699 2.522 A 0.09 0.09 0 0 1 6.711 2.509 Q 6.722 2.498 6.738 2.489 A 0.111 0.111 0 0 1 6.689 2.45 A 0.138 0.138 0 0 1 6.685 2.444 Q 6.664 2.412 6.664 2.37 A 0.183 0.183 0 0 1 6.669 2.327 A 0.12 0.12 0 0 1 6.706 2.265 A 0.134 0.134 0 0 1 6.757 2.236 Q 6.778 2.23 6.802 2.228 A 0.279 0.279 0 0 1 6.822 2.228 A 0.242 0.242 0 0 1 6.854 2.23 A 0.185 0.185 0 0 1 6.881 2.235 Z M 7.782 2.6 L 7.782 2.649 A 0.062 0.062 0 0 1 7.774 2.652 Q 7.765 2.655 7.752 2.657 A 0.274 0.274 0 0 1 7.734 2.659 Q 7.725 2.66 7.718 2.66 A 0.161 0.161 0 0 1 7.716 2.66 A 0.165 0.165 0 0 1 7.667 2.654 Q 7.594 2.631 7.594 2.533 L 7.594 2.284 L 7.535 2.284 L 7.535 2.254 L 7.594 2.228 L 7.621 2.138 L 7.658 2.138 L 7.658 2.235 L 7.779 2.235 L 7.779 2.284 L 7.658 2.284 L 7.658 2.53 Q 7.658 2.556 7.667 2.574 A 0.061 0.061 0 0 0 7.676 2.588 A 0.059 0.059 0 0 0 7.712 2.607 A 0.084 0.084 0 0 0 7.725 2.608 A 0.208 0.208 0 0 0 7.755 2.606 A 0.186 0.186 0 0 0 7.757 2.606 Q 7.772 2.603 7.781 2.601 Z M 6.408 2.232 L 6.4 2.291 A 0.279 0.279 0 0 0 6.38 2.287 Q 6.37 2.286 6.361 2.285 A 0.148 0.148 0 0 0 6.354 2.285 A 0.11 0.11 0 0 0 6.273 2.32 A 0.15 0.15 0 0 0 6.267 2.326 A 0.144 0.144 0 0 0 6.233 2.407 A 0.192 0.192 0 0 0 6.231 2.429 L 6.231 2.653 L 6.168 2.653 L 6.168 2.235 L 6.22 2.235 L 6.228 2.313 L 6.231 2.313 A 0.214 0.214 0 0 1 6.254 2.278 A 0.163 0.163 0 0 1 6.287 2.25 Q 6.319 2.228 6.359 2.228 A 0.29 0.29 0 0 1 6.385 2.229 A 0.212 0.212 0 0 1 6.408 2.232 Z M 6.55 2.235 L 6.55 2.653 L 6.487 2.653 L 6.487 2.235 L 6.55 2.235 Z M 6.859 2.643 L 6.784 2.643 A 0.145 0.145 0 0 0 6.757 2.645 Q 6.743 2.648 6.731 2.654 A 0.074 0.074 0 0 0 6.717 2.664 A 0.067 0.067 0 0 0 6.695 2.701 A 0.101 0.101 0 0 0 6.693 2.723 A 0.063 0.063 0 0 0 6.697 2.746 Q 6.703 2.761 6.717 2.772 A 0.074 0.074 0 0 0 6.721 2.774 Q 6.741 2.786 6.772 2.79 A 0.259 0.259 0 0 0 6.803 2.792 A 0.425 0.425 0 0 0 6.845 2.79 Q 6.893 2.785 6.921 2.768 A 0.092 0.092 0 0 0 6.942 2.75 A 0.069 0.069 0 0 0 6.959 2.703 Q 6.959 2.669 6.938 2.656 A 0.06 0.06 0 0 0 6.924 2.65 Q 6.909 2.645 6.885 2.644 A 0.402 0.402 0 0 0 6.859 2.643 Z M 6.727 2.369 A 0.123 0.123 0 0 0 6.729 2.395 Q 6.733 2.411 6.741 2.423 A 0.068 0.068 0 0 0 6.752 2.435 A 0.082 0.082 0 0 0 6.785 2.453 Q 6.801 2.458 6.821 2.458 A 0.138 0.138 0 0 0 6.857 2.453 Q 6.898 2.442 6.909 2.402 A 0.128 0.128 0 0 0 6.913 2.368 Q 6.913 2.293 6.854 2.278 A 0.138 0.138 0 0 0 6.819 2.274 A 0.133 0.133 0 0 0 6.792 2.276 Q 6.767 2.282 6.751 2.298 A 0.076 0.076 0 0 0 6.732 2.329 Q 6.727 2.346 6.727 2.369 Z M 6.492 2.09 A 0.03 0.03 0 0 0 6.485 2.1 Q 6.481 2.109 6.481 2.122 A 0.075 0.075 0 0 0 6.482 2.129 Q 6.483 2.145 6.492 2.154 A 0.035 0.035 0 0 0 6.505 2.162 A 0.04 0.04 0 0 0 6.519 2.164 Q 6.534 2.164 6.545 2.154 A 0.031 0.031 0 0 0 6.551 2.146 Q 6.556 2.136 6.556 2.122 Q 6.556 2.101 6.545 2.09 Q 6.534 2.08 6.519 2.08 A 0.048 0.048 0 0 0 6.515 2.08 A 0.037 0.037 0 0 0 6.492 2.09 Z" id="right_labelLayer" stroke="#000000" fill="#000000" style="stroke:#000000;fill:#000000" vector-effect="non-scaling-stroke"/><path d="M 9.25 2.2 L 9.25 2.638 L 9.05 2.638 L 9.05 3.162 L 9.25 3.162 L 9.25 3.688 L 9.05 3.688 L 9.05 4.213 L 9.25 4.213 L 9.25 4.738 L 9.05 4.738 L 9.05 5.263 L 9.25 5.263 L 9.25 5.7 L 9.663 5.7 L 9.663 5.9 L 10.188 5.9 L 10.188 5.7 L 10.713 5.7 L 10.713 5.9 L 11.238 5.9 L 11.238 5.7 L 11.763 5.7 L 11.763 5.9 L 12.288 5.9 L 12.288 5.7 L 12.813 5.7 L 12.813 5.9 L 13.338 5.9 L 13.338 5.7 L 13.75 5.7 L 13.75 5.263 L 13.95 5.263 L 13.95 4.738 L 13.75 4.738 L 13.75 4.213 L 13.95 4.213 L 13.95 3.688 L 13.75 3.688 L 13.75 3.163 L 13.95 3.163 L 13.95 2.638 L 13.75 2.638 L 13.75 2.2 L 13.338 2.2 L 13.338 2 L 12.813 2 L 12.813 2.2 L 12.288 2.2 L 12.288 2 L 11.763 2 L 11.763 2.2 L 11.238 2.2 L 11.238 2 L 10.713 2 L 10.713 2.2 L 10.188 2.2 L 10.188 2 L 9.663 2 L 9.663 2.2 L 9.25 2.2 Z" id="bottom_outsideCutPath" stroke="#000000" stroke-width="0.001" style="stroke:#000000;stroke-width:0.001" vector-effect="non-scaling-stroke"/><path d="M 12.783 4.242 L 12.72 4.242 L 12.72 3.971 A 0.187 0.187 0 0 0 12.718 3.944 Q 12.716 3.93 12.712 3.918 A 0.076 0.076 0 0 0 12.699 3.896 Q 12.68 3.874 12.643 3.872 A 0.147 0.147 0 0 0 12.632 3.871 A 0.163 0.163 0 0 0 12.599 3.874 Q 12.565 3.881 12.545 3.905 A 0.104 0.104 0 0 0 12.527 3.937 Q 12.517 3.966 12.517 4.009 L 12.517 4.242 L 12.454 4.242 L 12.454 3.971 A 0.187 0.187 0 0 0 12.452 3.944 Q 12.45 3.93 12.445 3.918 A 0.076 0.076 0 0 0 12.432 3.896 A 0.066 0.066 0 0 0 12.402 3.876 Q 12.386 3.871 12.366 3.871 A 0.157 0.157 0 0 0 12.333 3.874 Q 12.313 3.879 12.298 3.888 A 0.083 0.083 0 0 0 12.279 3.907 A 0.106 0.106 0 0 0 12.263 3.937 Q 12.253 3.965 12.251 4.009 A 0.44 0.44 0 0 0 12.251 4.023 L 12.251 4.242 L 12.188 4.242 L 12.188 3.825 L 12.239 3.825 L 12.25 3.882 L 12.253 3.882 A 0.124 0.124 0 0 1 12.303 3.835 A 0.15 0.15 0 0 1 12.362 3.818 A 0.181 0.181 0 0 1 12.376 3.817 A 0.207 0.207 0 0 1 12.423 3.822 Q 12.451 3.829 12.471 3.845 A 0.108 0.108 0 0 1 12.504 3.888 L 12.507 3.888 A 0.132 0.132 0 0 1 12.557 3.839 A 0.158 0.158 0 0 1 12.561 3.836 A 0.16 0.16 0 0 1 12.62 3.819 A 0.2 0.2 0 0 1 12.642 3.817 Q 12.713 3.817 12.748 3.854 A 0.109 0.109 0 0 1 12.771 3.892 Q 12.783 3.924 12.783 3.97 L 12.783 4.242 Z M 10.28 4.189 L 10.276 4.189 L 10.262 4.242 L 10.217 4.242 L 10.217 3.65 L 10.28 3.65 L 10.28 3.794 A 1.318 1.318 0 0 1 10.279 3.838 Q 10.279 3.861 10.277 3.881 L 10.28 3.881 A 0.144 0.144 0 0 1 10.385 3.82 A 0.216 0.216 0 0 1 10.411 3.818 A 0.193 0.193 0 0 1 10.466 3.825 A 0.145 0.145 0 0 1 10.539 3.874 Q 10.575 3.919 10.583 3.994 A 0.406 0.406 0 0 1 10.584 4.033 Q 10.584 4.136 10.539 4.193 A 0.15 0.15 0 0 1 10.432 4.249 A 0.214 0.214 0 0 1 10.411 4.25 A 0.192 0.192 0 0 1 10.363 4.244 A 0.167 0.167 0 0 1 10.337 4.235 Q 10.303 4.22 10.28 4.189 Z M 11.358 4.19 L 11.358 4.239 A 0.062 0.062 0 0 1 11.351 4.242 Q 11.341 4.245 11.328 4.247 A 0.274 0.274 0 0 1 11.31 4.249 Q 11.301 4.25 11.294 4.25 A 0.161 0.161 0 0 1 11.292 4.25 A 0.165 0.165 0 0 1 11.243 4.244 Q 11.171 4.221 11.171 4.123 L 11.171 3.874 L 11.111 3.874 L 11.111 3.844 L 11.171 3.817 L 11.197 3.728 L 11.234 3.728 L 11.234 3.825 L 11.355 3.825 L 11.355 3.874 L 11.234 3.874 L 11.234 4.12 Q 11.234 4.146 11.243 4.164 A 0.061 0.061 0 0 0 11.252 4.178 A 0.059 0.059 0 0 0 11.288 4.197 A 0.084 0.084 0 0 0 11.301 4.198 A 0.208 0.208 0 0 0 11.331 4.196 A 0.186 0.186 0 0 0 11.333 4.195 Q 11.348 4.193 11.357 4.191 Z M 11.633 4.19 L 11.633 4.239 A 0.062 0.062 0 0 1 11.626 4.242 Q 11.617 4.245 11.603 4.247 A 0.274 0.274 0 0 1 11.585 4.249 Q 11.577 4.25 11.569 4.25 A 0.161 0.161 0 0 1 11.567 4.25 A 0.165 0.165 0 0 1 11.518 4.244 Q 11.446 4.221 11.446 4.123 L 11.446 3.874 L 11.386 3.874 L 11.386 3.844 L 11.446 3.817 L 11.473 3.728 L 11.509 3.728 L 11.509 3.825 L 11.63 3.825 L 11.63 3.874 L 11.509 3.874 L 11.509 4.12 Q 11.509 4.146 11.518 4.164 A 0.061 0.061 0 0 0 11.527 4.178 A 0.059 0.059 0 0 0 11.563 4.197 A 0.084 0.084 0 0 0 11.576 4.198 A 0.208 0.208 0 0 0 11.607 4.196 A 0.186 0.186 0 0 0 11.609 4.195 Q 11.623 4.193 11.632 4.191 Z M 11.049 4.097 A 0.327 0.327 0 0 0 11.055 4.033 Q 11.055 3.993 11.047 3.959 A 0.197 0.197 0 0 0 11.004 3.876 Q 10.952 3.817 10.864 3.817 A 0.246 0.246 0 0 0 10.82 3.821 A 0.167 0.167 0 0 0 10.723 3.874 Q 10.689 3.912 10.677 3.97 A 0.328 0.328 0 0 0 10.672 4.033 A 0.316 0.316 0 0 0 10.676 4.085 A 0.234 0.234 0 0 0 10.695 4.148 A 0.208 0.208 0 0 0 10.7 4.157 A 0.171 0.171 0 0 0 10.762 4.224 A 0.176 0.176 0 0 0 10.803 4.242 A 0.203 0.203 0 0 0 10.862 4.25 A 0.246 0.246 0 0 0 10.905 4.247 A 0.169 0.169 0 0 0 11.004 4.193 A 0.176 0.176 0 0 0 11.025 4.164 Q 11.042 4.135 11.049 4.097 Z M 12.071 4.097 A 0.327 0.327 0 0 0 12.077 4.033 Q 12.077 3.993 12.068 3.959 A 0.197 0.197 0 0 0 12.025 3.876 Q 11.974 3.817 11.886 3.817 A 0.246 0.246 0 0 0 11.842 3.821 A 0.167 0.167 0 0 0 11.745 3.874 Q 11.711 3.912 11.699 3.97 A 0.328 0.328 0 0 0 11.693 4.033 A 0.316 0.316 0 0 0 11.697 4.085 A 0.234 0.234 0 0 0 11.717 4.148 A 0.208 0.208 0 0 0 11.722 4.157 A 0.171 0.171 0 0 0 11.784 4.224 A 0.176 0.176 0 0 0 11.825 4.242 A 0.203 0.203 0 0 0 11.884 4.25 A 0.246 0.246 0 0 0 11.926 4.247 A 0.169 0.169 0 0 0 12.026 4.193 A 0.176 0.176 0 0 0 12.047 4.164 Q 12.064 4.135 12.071 4.097 Z M 10.737 4.033 Q 10.737 4.113 10.769 4.155 Q 10.801 4.197 10.863 4.197 A 0.147 0.147 0 0 0 10.902 4.192 A 0.102 0.102 0 0 0 10.957 4.155 A 0.136 0.136 0 0 0 10.979 4.114 Q 10.985 4.095 10.988 4.072 A 0.333 0.333 0 0 0 10.99 4.033 A 0.315 0.315 0 0 0 10.987 3.988 Q 10.98 3.941 10.957 3.912 A 0.104 0.104 0 0 0 10.893 3.874 A 0.159 0.159 0 0 0 10.862 3.871 A 0.15 0.15 0 0 0 10.825 3.876 A 0.101 0.101 0 0 0 10.769 3.912 A 0.131 0.131 0 0 0 10.748 3.951 Q 10.737 3.985 10.737 4.033 Z M 11.759 4.033 Q 11.759 4.113 11.791 4.155 Q 11.823 4.197 11.885 4.197 A 0.147 0.147 0 0 0 11.924 4.192 A 0.102 0.102 0 0 0 11.979 4.155 A 0.136 0.136 0 0 0 12 4.114 Q 12.007 4.095 12.009 4.072 A 0.333 0.333 0 0 0 12.011 4.033 A 0.315 0.315 0 0 0 12.009 3.988 Q 12.002 3.941 11.979 3.912 A 0.104 0.104 0 0 0 11.915 3.874 A 0.159 0.159 0 0 0 11.884 3.871 A 0.15 0.15 0 0 0 11.847 3.876 A 0.101 0.101 0 0 0 11.791 3.912 A 0.131 0.131 0 0 0 11.77 3.951 Q 11.759 3.985 11.759 4.033 Z M 10.402 3.871 A 0.178 0.178 0 0 0 10.368 3.874 Q 10.348 3.878 10.333 3.887 A 0.084 0.084 0 0 0 10.309 3.908 A 0.108 0.108 0 0 0 10.293 3.938 Q 10.282 3.968 10.281 4.013 A 0.487 0.487 0 0 0 10.28 4.033 A 0.418 0.418 0 0 0 10.282 4.077 Q 10.287 4.12 10.301 4.147 A 0.095 0.095 0 0 0 10.309 4.159 A 0.092 0.092 0 0 0 10.356 4.191 Q 10.372 4.196 10.39 4.197 A 0.203 0.203 0 0 0 10.404 4.197 A 0.126 0.126 0 0 0 10.439 4.192 A 0.091 0.091 0 0 0 10.49 4.155 Q 10.519 4.112 10.519 4.033 A 0.374 0.374 0 0 0 10.517 3.99 Q 10.511 3.94 10.49 3.911 A 0.092 0.092 0 0 0 10.432 3.874 A 0.146 0.146 0 0 0 10.402 3.871 Z" id="bottom_labelLayer" stroke="#000000" fill="#000000" style="stroke:#000000;fill:#000000" vector-effect="non-scaling-stroke"/></g></svg>